<?xml version="1.0" encoding="UTF-8"?>
<svg id="_レイヤー_1" data-name="レイヤー 1" xmlns="http://www.w3.org/2000/svg" viewBox="0 0 400 400">
  <g>
    <rect x="336.06" y="97.39" width="25.41" height="25.41"/>
    <rect x="275.19" y="97.39" width="25.41" height="25.41"/>
    <rect x="336.06" y="36.52" width="25.41" height="25.41"/>
    <rect x="275.19" y="36.52" width="25.41" height="25.41"/>
  </g>
  <g>
    <rect x="100.06" y="97.39" width="25.41" height="25.41"/>
    <rect x="39.19" y="97.39" width="25.41" height="25.41"/>
    <rect x="100.06" y="36.52" width="25.41" height="25.41"/>
    <rect x="39.19" y="36.52" width="25.41" height="25.41"/>
  </g>
  <g>
    <rect x="336.06" y="339.07" width="25.41" height="25.41"/>
    <rect x="275.19" y="339.07" width="25.41" height="25.41"/>
    <rect x="336.06" y="278.2" width="25.41" height="25.41"/>
    <rect x="275.19" y="278.2" width="25.41" height="25.41"/>
  </g>
  <g>
    <rect x="100.06" y="339.07" width="25.41" height="25.41"/>
    <rect x="39.19" y="339.07" width="25.41" height="25.41"/>
    <rect x="100.06" y="278.2" width="25.41" height="25.41"/>
    <rect x="39.19" y="278.2" width="25.41" height="25.41"/>
  </g>
</svg>