<svg xmlns="http://www.w3.org/2000/svg" xmlns:xlink="http://www.w3.org/1999/xlink" width="905.928" height="476.371" viewBox="0 0 905.928 476.371">
  <defs>
    <clipPath id="clip-path">
      <rect id="長方形_52" data-name="長方形 52" width="905.928" height="476.371" fill="#e0e0e0"/>
    </clipPath>
  </defs>
  <g id="グループ_62" data-name="グループ 62" opacity="0.375">
    <g id="グループ_61" data-name="グループ 61" clip-path="url(#clip-path)">
      <g id="グループ_60" data-name="グループ 60">
        <g id="グループ_59" data-name="グループ 59" clip-path="url(#clip-path)">
          <g id="グループ_58" data-name="グループ 58" style="mix-blend-mode: multiply;isolation: isolate">
            <g id="グループ_57" data-name="グループ 57">
              <g id="グループ_56" data-name="グループ 56" clip-path="url(#clip-path)">
                <path id="パス_7" data-name="パス 7" d="M235.278,476.263H136.259V0h99.019V189.654h128.96L274.8,279.089H235.278ZM146.523,466h78.491V268.828h45.533l68.917-68.91H225.014V10.264H146.523Z" transform="translate(340.735)" fill="#e0e0e0"/>
                <path id="パス_8" data-name="パス 8" d="M443.888,476.371l-6.921-.108H327.3V279.089H184.77L274.2,189.654H327.3V0H443.888ZM337.559,466h96.065V10.264H337.559V199.918h-59.1l-68.91,68.91H337.559Z" transform="translate(462.044)" fill="#e0e0e0"/>
                <path id="パス_9" data-name="パス 9" d="M428.93,476.371h-116.6V422.09H183.668l89.441-89.434h39.225V260.469l-215.9,215.9H0V428.664a49.8,49.8,0,0,1,14.661-35.416L312.334,95.578v-21.7L386.212,0H428.93V476.371ZM322.6,466.107h96.068V10.26h-28.2L322.6,78.131v21.7L21.921,400.505A39.6,39.6,0,0,0,10.26,428.664v37.443H92.189L322.6,235.695V342.92H277.36l-68.917,68.91H322.6Z" fill="#e0e0e0"/>
              </g>
            </g>
          </g>
        </g>
      </g>
    </g>
  </g>
</svg>
