<svg xmlns="http://www.w3.org/2000/svg" xmlns:xlink="http://www.w3.org/1999/xlink" width="63.747" height="34.266" viewBox="0 0 63.747 34.266">
  <defs>
    <clipPath id="clip-path">
      <rect id="長方形_38" data-name="長方形 38" width="63.247" height="33.257" transform="translate(0 0)" fill="#fff" stroke="#707070" stroke-width="1"/>
    </clipPath>
  </defs>
  <g id="グループ_68" data-name="グループ 68" transform="translate(-46 -49.371)">
    <g id="グループ_23" data-name="グループ 23" transform="translate(46 49.871)">
      <path id="パス_1" data-name="パス 1" d="M34.017.716H39.5V13.957h7.99l-4.812,4.812H39.5V32.533H34.017ZM33.3,0V33.25h6.913V19.485h2.759l6.245-6.244h-9V0Z" fill="#fff" stroke="#707070" stroke-width="1"/>
      <path id="パス_2" data-name="パス 2" d="M51.7,13.957h4.126V.716H62.53V32.533H55.823V18.769H46.886ZM55.107,0V13.241H51.4l-6.244,6.244h9.95V33.25h7.656l.484.008V0Z" fill="#fff" stroke="#707070" stroke-width="1"/>
      <g id="グループ_22" data-name="グループ 22">
        <g id="グループ_21" data-name="グループ 21" clip-path="url(#clip-path)">
          <path id="パス_3" data-name="パス 3" d="M29.945,33.257H21.806V29.468H12.823l6.244-6.244h2.739v-5.04L6.733,33.257H0v-3.33a3.477,3.477,0,0,1,1.024-2.473L21.806,6.673V5.158L26.963,0h2.982V33.257Zm-7.423-.716h6.707V.717H27.26L22.522,5.455V6.969L1.53,27.961a2.767,2.767,0,0,0-.814,1.966v2.614h5.72L22.522,16.455v7.486H19.364l-4.812,4.811h7.97Z" fill="#fff" stroke="#707070" stroke-width="1"/>
        </g>
      </g>
    </g>
  </g>
</svg>
