<?xml version="1.0" encoding="UTF-8"?>
<svg id="_レイヤー_1" data-name="レイヤー_1" xmlns="http://www.w3.org/2000/svg" version="1.1" viewBox="0 0 300 300">
  <!-- Generator: Adobe Illustrator 29.5.0, SVG Export Plug-In . SVG Version: 2.1.0 Build 137)  -->
  <defs>
    <style>
      .st0 {
        fill: none;
        stroke: #fff;
        stroke-miterlimit: 10;
        stroke-width: 2.8px;
      }
    </style>
  </defs>
  <circle class="st0" cx="150" cy="150.5" r="17.5"/>
  <path class="st0" d="M233.8,159.3v-17.6c0-3.3-2.7-6.1-6.1-6.1h-14.6c-2.6,0-4.9-1.6-5.7-4.1s-2.1-5.6-3.4-8.3-.7-5.1,1.2-6.9l10.3-10.3c2.4-2.4,2.4-6.2,0-8.6l-12.5-12.5c-2.4-2.4-6.2-2.4-8.6,0l-10.3,10.3c-1.8,1.8-4.6,2.3-6.9,1.2s-5.4-2.5-8.3-3.4-4.1-3.1-4.1-5.7v-14.6c0-3.3-2.7-6.1-6.1-6.1h-17.6c-3.3,0-6.1,2.7-6.1,6.1v14.6c0,2.6-1.6,4.9-4.1,5.7s-5.6,2.1-8.3,3.4c-2.3,1.2-5.1.7-6.9-1.2l-10.3-10.3c-2.4-2.4-6.2-2.4-8.6,0l-12.5,12.5c-2.4,2.4-2.4,6.2,0,8.6l10.3,10.3c1.8,1.8,2.3,4.6,1.2,6.9-1.3,2.7-2.5,5.4-3.4,8.3-.8,2.4-3.1,4.1-5.7,4.1h-14.6c-3.3,0-6.1,2.7-6.1,6.1v17.6c0,3.3,2.7,6.1,6.1,6.1h14.6c2.6,0,4.9,1.6,5.7,4.1.9,2.9,2.1,5.6,3.4,8.3s.7,5.1-1.2,6.9l-10.3,10.3c-2.4,2.4-2.4,6.2,0,8.6l12.5,12.5c2.4,2.4,6.2,2.4,8.6,0l10.3-10.3c1.8-1.8,4.6-2.3,6.9-1.2,2.7,1.3,5.4,2.5,8.3,3.4,2.4.8,4.1,3.1,4.1,5.7v14.6c0,3.3,2.7,6.1,6.1,6.1h17.6c3.3,0,6.1-2.7,6.1-6.1v-14.6c0-2.6,1.6-4.9,4.1-5.7,2.9-.9,5.6-2.1,8.3-3.4,2.3-1.2,5.1-.7,6.9,1.2l10.3,10.3c2.4,2.4,6.2,2.4,8.6,0l12.5-12.5c2.4-2.4,2.4-6.2,0-8.6l-10.3-10.3c-1.8-1.8-2.3-4.6-1.2-6.9,1.3-2.7,2.5-5.4,3.4-8.3s3.1-4.1,5.7-4.1h14.6c3.3,0,6.1-2.7,6.1-6.1Z"/>
</svg>