<?xml version="1.0" encoding="UTF-8"?>
<svg id="_レイヤー_1" data-name="レイヤー_1" xmlns="http://www.w3.org/2000/svg" version="1.1" viewBox="0 0 300 300">
  <!-- Generator: Adobe Illustrator 29.5.0, SVG Export Plug-In . SVG Version: 2.1.0 Build 137)  -->
  <defs>
    <style>
      .st0 {
        stroke-width: 2.8px;
      }

      .st0, .st1 {
        fill: none;
        stroke: #fff;
        stroke-miterlimit: 10;
      }

      .st1 {
        stroke-width: 3.1px;
      }
    </style>
  </defs>
  <path class="st0" d="M193.3,85.3h-28.5v26.8h-29.6v-26.8h-28.5c-7.1,0-12.8,5.7-12.8,12.8v132.3c0,7.1,5.7,12.8,12.8,12.8h86.6c7.1,0,12.8-5.7,12.8-12.8V98.2c0-7.1-5.7-12.8-12.8-12.8Z"/>
  <rect class="st0" x="135.2" y="57.7" width="29.6" height="54.4"/>
  <circle class="st0" cx="149.8" cy="94.7" r="4.7"/>
  <g>
    <rect class="st0" x="110.6" y="194.4" width="32" height="32"/>
    <line class="st0" x1="153.9" y1="194.4" x2="190.1" y2="194.4"/>
    <line class="st0" x1="153.9" y1="205" x2="190.1" y2="205"/>
    <line class="st0" x1="153.9" y1="215.7" x2="190.1" y2="215.7"/>
    <line class="st0" x1="153.9" y1="226.3" x2="190.1" y2="226.3"/>
  </g>
  <circle class="st0" cx="149.8" cy="140.5" r="15.3"/>
  <path class="st1" d="M133,153.8h0c-6.6,0-12.1,5-12.8,11.6l-1.9,18.8h31.5"/>
  <path class="st1" d="M166.2,153.8h0c6.6,0,12.1,5,12.8,11.6l1.9,18.8h-31.5"/>
</svg>