<?xml version="1.0" encoding="UTF-8"?>
<svg id="_レイヤー_1" data-name="レイヤー_1" xmlns="http://www.w3.org/2000/svg" version="1.1" viewBox="0 0 300 300">
  <!-- Generator: Adobe Illustrator 29.5.0, SVG Export Plug-In . SVG Version: 2.1.0 Build 137)  -->
  <defs>
    <style>
      .st0 {
        fill: none;
        stroke: #fff;
        stroke-miterlimit: 10;
        stroke-width: 2.8px;
      }
    </style>
  </defs>
  <rect class="st0" x="66.2" y="66.7" width="167.5" height="167.5"/>
  <rect class="st0" x="81.6" y="87.5" width="34.1" height="34.1"/>
  <line class="st0" x1="127.8" y1="87.5" x2="218.4" y2="87.5"/>
  <line class="st0" x1="127.8" y1="98.9" x2="218.4" y2="98.9"/>
  <line class="st0" x1="127.8" y1="110.3" x2="218.4" y2="110.3"/>
  <line class="st0" x1="127.8" y1="121.7" x2="218.4" y2="121.7"/>
  <line class="st0" x1="115.7" y1="196" x2="160.5" y2="196"/>
  <line class="st0" x1="115.7" y1="203.2" x2="160.5" y2="203.2"/>
  <line class="st0" x1="115.7" y1="210.4" x2="160.5" y2="210.4"/>
  <line class="st0" x1="115.7" y1="217.6" x2="160.5" y2="217.6"/>
  <line class="st0" x1="173.6" y1="196" x2="218.4" y2="196"/>
  <line class="st0" x1="173.6" y1="203.2" x2="218.4" y2="203.2"/>
  <line class="st0" x1="173.6" y1="210.4" x2="218.4" y2="210.4"/>
  <line class="st0" x1="173.6" y1="217.6" x2="218.4" y2="217.6"/>
  <polyline class="st0" points="81.6 139.4 81.6 180.9 218.4 180.9"/>
  <polyline class="st0" points="81.6 180.9 103.1 159.4 133.2 159.4 139.2 165.4 150 165.4 164.2 151.2 198.4 151.2 206.2 143.3 218.4 143.3"/>
  <circle class="st0" cx="92.4" cy="206.8" r="10.8"/>
</svg>