<?xml version="1.0" encoding="UTF-8"?>
<svg xmlns="http://www.w3.org/2000/svg" xmlns:xlink="http://www.w3.org/1999/xlink" viewBox="0 0 300 1920">
  <defs>
    <style>
      .cls-1, .cls-2 {
        fill: none;
      }

      .cls-3 {
        mix-blend-mode: multiply;
        opacity: .5;
      }

      .cls-4 {
        isolation: isolate;
      }

      .cls-2 {
        stroke: #000;
        stroke-miterlimit: 10;
        stroke-width: .61px;
      }

      .cls-5 {
        clip-path: url(#clippath);
      }
    </style>
    <clipPath id="clippath">
      <rect class="cls-1" width="300" height="1920"/>
    </clipPath>
  </defs>
  <g class="cls-4">
    <g id="_レイヤー_1" data-name="レイヤー 1">
      <g class="cls-5">
        <g class="cls-3">
          <g>
            <polygon class="cls-2" points="47.22 639.71 -13.15 578.94 -13.55 712.7 47.22 773.47 47.22 639.71"/>
            <path class="cls-2" d="M110.68,271.48c14.75,0,26.71,11.96,26.71,26.71v65.22l60.77,60.77v-161.97l-51.5-51.5H13.15l60.77,60.77h36.76Z"/>
            <path class="cls-2" d="M137.4,394.72H13.15l60.77,60.77h36.76c14.75,0,26.71,11.96,26.71,26.71v65.22l60.77,60.77v-161.97l-51.5-51.5h-9.27Z"/>
            <path class="cls-2" d="M137.4,578.94H13.15l60.77,60.77v129.06h36.78v-129.06h18.99c4.26,0,7.71,3.45,7.71,7.71v121.36h60.77v-138.33l-51.5-51.5h-9.27Z"/>
            <polygon class="cls-2" points="47.22 455.49 -13.55 394.72 -13.55 560.32 32.06 560.32 47.22 545.17 47.22 455.49"/>
            <polygon class="cls-2" points="47.22 271.48 -13.55 210.71 -13.55 313.32 -13.55 377.46 -13.15 377.46 32.06 377.46 47.22 362.3 47.22 271.48"/>
            <path class="cls-2" d="M212.33,128.26h-12.41L28.95-42.72c-4.82-4.82-11.35-7.53-18.17-7.53H-13.55V.73l127.53,127.53h-51.27v-24.14L17.47,58.88v69.39H-13.55v60.77H252.83v-20.27l-40.5-40.5Z"/>
            <polygon class="cls-2" points="47.22 821.08 73.92 847.78 252.83 847.78 252.83 827.52 212.33 787.01 13.15 787.01 -13.55 760.31 -13.55 950.22 47.22 950.22 47.22 821.08"/>
          </g>
          <g>
            <polygon class="cls-2" points="-13.49 1004.41 -13.49 1055.13 99.19 1055.13 99.19 1079.44 144.44 1124.69 144.44 1055.13 189.63 1055.13 252.83 1055.13 252.83 1004.41 -13.49 1004.41"/>
            <path class="cls-2" d="M131.81,1449.01H14.09l60.77,60.77h30.23c14.75,0,26.71,11.96,26.71,26.71v148.08l60.77,60.77v-244.83l-51.5-51.5h-9.27Z"/>
            <path class="cls-2" d="M121.06,1697.72v-60.77H-13.43v76.53h87.7c13.23,0,19.86,16,10.5,25.35l-98.2,98.2v85.94l134.48-134.48v-90.77Z"/>
            <polygon class="cls-2" points="252.71 1910.17 252.83 1824.35 131.64 1703.12 131.64 1789.06 252.71 1910.17"/>
            <polygon class="cls-2" points="48.16 1509.78 -12.61 1449.01 -12.61 1618.41 33 1618.41 48.16 1603.25 48.16 1509.78"/>
            <path class="cls-2" d="M217.02,1371.34h-16.97l-109.57-109.57c-6.67-6.67-1.95-18.08,7.49-18.08h154.87v-60.77h-108.39v-32.06l-45.25-45.25v77.31H-13.49v60.68l-.06.09,127.66,127.66h-51.27v-33.63l-45.25-45.25v78.88H-13.43v60.77H252.83v-24.97l-35.82-35.8Z"/>
            <polygon class="cls-2" points="253.04 1672.57 217.4 1636.95 204.88 1636.95 204.88 1713.48 252.83 1713.48 253.04 1672.57"/>
          </g>
        </g>
      </g>
    </g>
  </g>
</svg>