<?xml version="1.0" encoding="UTF-8"?>
<svg id="_レイヤー_1" data-name="レイヤー 1" xmlns="http://www.w3.org/2000/svg" viewBox="0 0 1380 135">
  <defs>
    <style>
      .cls-1 {
        fill: #707070;
      }

      .cls-2 {
        fill: none;
        stroke: #707070;
        stroke-miterlimit: 10;
        stroke-width: .69px;
      }
    </style>
  </defs>
  <g>
    <rect class="cls-2" x="1272.66" y="31.6" width="72.79" height="72.79"/>
    <rect class="cls-2" x="1303.04" y="61.99" width="12.03" height="12.03"/>
    <g>
      <rect class="cls-1" x="1341.94" y="30.73" width="7.02" height="1.75"/>
      <rect class="cls-1" x="1341.94" y="30.73" width="7.02" height="1.75" transform="translate(1377.05 -1313.84) rotate(90)"/>
    </g>
    <g>
      <rect class="cls-1" x="1269.15" y="30.73" width="7.02" height="1.75"/>
      <rect class="cls-1" x="1269.15" y="30.73" width="7.02" height="1.75" transform="translate(1304.26 -1241.05) rotate(90)"/>
    </g>
    <g>
      <rect class="cls-1" x="1341.94" y="103.52" width="7.02" height="1.75"/>
      <rect class="cls-1" x="1341.94" y="103.52" width="7.02" height="1.75" transform="translate(1449.84 -1241.05) rotate(90)"/>
    </g>
    <g>
      <rect class="cls-1" x="1269.15" y="103.52" width="7.02" height="1.75"/>
      <rect class="cls-1" x="1269.15" y="103.52" width="7.02" height="1.75" transform="translate(1377.05 -1168.26) rotate(90)"/>
    </g>
    <line class="cls-2" x1="1272.66" y1="104.4" x2="1345.45" y2="31.6"/>
  </g>
  <g>
    <rect class="cls-2" x="1199.87" y="31.6" width="72.79" height="72.79"/>
    <rect class="cls-2" x="1230.25" y="61.99" width="12.03" height="12.03"/>
    <g>
      <rect class="cls-1" x="1269.15" y="30.73" width="7.02" height="1.75"/>
      <rect class="cls-1" x="1269.15" y="30.73" width="7.02" height="1.75" transform="translate(1304.26 -1241.05) rotate(90)"/>
    </g>
    <g>
      <rect class="cls-1" x="1196.36" y="30.73" width="7.02" height="1.75"/>
      <rect class="cls-1" x="1196.36" y="30.73" width="7.02" height="1.75" transform="translate(1231.47 -1168.26) rotate(90)"/>
    </g>
    <g>
      <rect class="cls-1" x="1269.15" y="103.52" width="7.02" height="1.75"/>
      <rect class="cls-1" x="1269.15" y="103.52" width="7.02" height="1.75" transform="translate(1377.05 -1168.26) rotate(90)"/>
    </g>
    <g>
      <rect class="cls-1" x="1196.36" y="103.52" width="7.02" height="1.75"/>
      <rect class="cls-1" x="1196.36" y="103.52" width="7.02" height="1.75" transform="translate(1304.26 -1095.47) rotate(90)"/>
    </g>
    <line class="cls-2" x1="1199.87" y1="104.4" x2="1272.66" y2="31.6"/>
  </g>
  <g>
    <rect class="cls-2" x="1127.08" y="31.6" width="72.79" height="72.79"/>
    <rect class="cls-2" x="1157.46" y="61.99" width="12.03" height="12.03"/>
    <g>
      <rect class="cls-1" x="1196.36" y="30.73" width="7.02" height="1.75"/>
      <rect class="cls-1" x="1196.36" y="30.73" width="7.02" height="1.75" transform="translate(1231.47 -1168.26) rotate(90)"/>
    </g>
    <g>
      <rect class="cls-1" x="1123.57" y="30.73" width="7.02" height="1.75"/>
      <rect class="cls-1" x="1123.57" y="30.73" width="7.02" height="1.75" transform="translate(1158.68 -1095.47) rotate(90)"/>
    </g>
    <g>
      <rect class="cls-1" x="1196.36" y="103.52" width="7.02" height="1.75"/>
      <rect class="cls-1" x="1196.36" y="103.52" width="7.02" height="1.75" transform="translate(1304.26 -1095.47) rotate(90)"/>
    </g>
    <g>
      <rect class="cls-1" x="1123.57" y="103.52" width="7.02" height="1.75"/>
      <rect class="cls-1" x="1123.57" y="103.52" width="7.02" height="1.75" transform="translate(1231.47 -1022.68) rotate(90)"/>
    </g>
    <line class="cls-2" x1="1127.08" y1="104.4" x2="1199.87" y2="31.6"/>
  </g>
  <g>
    <rect class="cls-2" x="1054.29" y="31.6" width="72.79" height="72.79"/>
    <rect class="cls-2" x="1084.67" y="61.99" width="12.03" height="12.03"/>
    <g>
      <rect class="cls-1" x="1123.57" y="30.73" width="7.02" height="1.75"/>
      <rect class="cls-1" x="1123.57" y="30.73" width="7.02" height="1.75" transform="translate(1158.68 -1095.47) rotate(90)"/>
    </g>
    <g>
      <rect class="cls-1" x="1050.78" y="30.73" width="7.02" height="1.75"/>
      <rect class="cls-1" x="1050.78" y="30.73" width="7.02" height="1.75" transform="translate(1085.89 -1022.68) rotate(90)"/>
    </g>
    <g>
      <rect class="cls-1" x="1123.57" y="103.52" width="7.02" height="1.75"/>
      <rect class="cls-1" x="1123.57" y="103.52" width="7.02" height="1.75" transform="translate(1231.47 -1022.68) rotate(90)"/>
    </g>
    <g>
      <rect class="cls-1" x="1050.78" y="103.52" width="7.02" height="1.75"/>
      <rect class="cls-1" x="1050.78" y="103.52" width="7.02" height="1.75" transform="translate(1158.68 -949.89) rotate(90)"/>
    </g>
    <line class="cls-2" x1="1054.29" y1="104.4" x2="1127.08" y2="31.6"/>
  </g>
  <g>
    <rect class="cls-2" x="981.49" y="31.6" width="72.79" height="72.79"/>
    <rect class="cls-2" x="1011.88" y="61.99" width="12.03" height="12.03"/>
    <g>
      <rect class="cls-1" x="1050.78" y="30.73" width="7.02" height="1.75"/>
      <rect class="cls-1" x="1050.78" y="30.73" width="7.02" height="1.75" transform="translate(1085.89 -1022.68) rotate(90)"/>
    </g>
    <g>
      <rect class="cls-1" x="977.99" y="30.73" width="7.02" height="1.75"/>
      <rect class="cls-1" x="977.99" y="30.73" width="7.02" height="1.75" transform="translate(1013.1 -949.89) rotate(90)"/>
    </g>
    <g>
      <rect class="cls-1" x="1050.78" y="103.52" width="7.02" height="1.75"/>
      <rect class="cls-1" x="1050.78" y="103.52" width="7.02" height="1.75" transform="translate(1158.68 -949.89) rotate(90)"/>
    </g>
    <g>
      <rect class="cls-1" x="977.99" y="103.52" width="7.02" height="1.75"/>
      <rect class="cls-1" x="977.99" y="103.52" width="7.02" height="1.75" transform="translate(1085.89 -877.1) rotate(90)"/>
    </g>
    <line class="cls-2" x1="981.49" y1="104.4" x2="1054.29" y2="31.6"/>
  </g>
  <g>
    <rect class="cls-2" x="908.7" y="31.6" width="72.79" height="72.79"/>
    <rect class="cls-2" x="939.09" y="61.99" width="12.03" height="12.03"/>
    <g>
      <rect class="cls-1" x="977.99" y="30.73" width="7.02" height="1.75"/>
      <rect class="cls-1" x="977.99" y="30.73" width="7.02" height="1.75" transform="translate(1013.1 -949.89) rotate(90)"/>
    </g>
    <g>
      <rect class="cls-1" x="905.19" y="30.73" width="7.02" height="1.75"/>
      <rect class="cls-1" x="905.19" y="30.73" width="7.02" height="1.75" transform="translate(940.31 -877.1) rotate(90)"/>
    </g>
    <g>
      <rect class="cls-1" x="977.99" y="103.52" width="7.02" height="1.75"/>
      <rect class="cls-1" x="977.99" y="103.52" width="7.02" height="1.75" transform="translate(1085.89 -877.1) rotate(90)"/>
    </g>
    <g>
      <rect class="cls-1" x="905.19" y="103.52" width="7.02" height="1.75"/>
      <rect class="cls-1" x="905.19" y="103.52" width="7.02" height="1.75" transform="translate(1013.1 -804.31) rotate(90)"/>
    </g>
    <line class="cls-2" x1="908.7" y1="104.4" x2="981.49" y2="31.6"/>
  </g>
  <g>
    <rect class="cls-2" x="835.91" y="31.6" width="72.79" height="72.79"/>
    <rect class="cls-2" x="866.29" y="61.99" width="12.03" height="12.03"/>
    <g>
      <rect class="cls-1" x="905.19" y="30.73" width="7.02" height="1.75"/>
      <rect class="cls-1" x="905.19" y="30.73" width="7.02" height="1.75" transform="translate(940.31 -877.1) rotate(90)"/>
    </g>
    <g>
      <rect class="cls-1" x="832.4" y="30.73" width="7.02" height="1.75"/>
      <rect class="cls-1" x="832.4" y="30.73" width="7.02" height="1.75" transform="translate(867.52 -804.31) rotate(90)"/>
    </g>
    <g>
      <rect class="cls-1" x="905.19" y="103.52" width="7.02" height="1.75"/>
      <rect class="cls-1" x="905.19" y="103.52" width="7.02" height="1.75" transform="translate(1013.1 -804.31) rotate(90)"/>
    </g>
    <g>
      <rect class="cls-1" x="832.4" y="103.52" width="7.02" height="1.75"/>
      <rect class="cls-1" x="832.4" y="103.52" width="7.02" height="1.75" transform="translate(940.31 -731.52) rotate(90)"/>
    </g>
    <line class="cls-2" x1="835.91" y1="104.4" x2="908.7" y2="31.6"/>
  </g>
  <g>
    <rect class="cls-2" x="763.12" y="31.6" width="72.79" height="72.79"/>
    <rect class="cls-2" x="793.5" y="61.99" width="12.03" height="12.03"/>
    <g>
      <rect class="cls-1" x="832.4" y="30.73" width="7.02" height="1.75"/>
      <rect class="cls-1" x="832.4" y="30.73" width="7.02" height="1.75" transform="translate(867.52 -804.31) rotate(90)"/>
    </g>
    <g>
      <rect class="cls-1" x="759.61" y="30.73" width="7.02" height="1.75"/>
      <rect class="cls-1" x="759.61" y="30.73" width="7.02" height="1.75" transform="translate(794.73 -731.52) rotate(90)"/>
    </g>
    <g>
      <rect class="cls-1" x="832.4" y="103.52" width="7.02" height="1.75"/>
      <rect class="cls-1" x="832.4" y="103.52" width="7.02" height="1.75" transform="translate(940.31 -731.52) rotate(90)"/>
    </g>
    <g>
      <rect class="cls-1" x="759.61" y="103.52" width="7.02" height="1.75"/>
      <rect class="cls-1" x="759.61" y="103.52" width="7.02" height="1.75" transform="translate(867.52 -658.73) rotate(90)"/>
    </g>
    <line class="cls-2" x1="763.12" y1="104.4" x2="835.91" y2="31.6"/>
  </g>
  <g>
    <rect class="cls-2" x="690.33" y="31.6" width="72.79" height="72.79"/>
    <rect class="cls-2" x="720.71" y="61.99" width="12.03" height="12.03"/>
    <g>
      <rect class="cls-1" x="759.61" y="30.73" width="7.02" height="1.75"/>
      <rect class="cls-1" x="759.61" y="30.73" width="7.02" height="1.75" transform="translate(794.73 -731.52) rotate(90)"/>
    </g>
    <g>
      <rect class="cls-1" x="686.82" y="30.73" width="7.02" height="1.75"/>
      <rect class="cls-1" x="686.82" y="30.73" width="7.02" height="1.75" transform="translate(721.94 -658.73) rotate(90)"/>
    </g>
    <g>
      <rect class="cls-1" x="759.61" y="103.52" width="7.02" height="1.75"/>
      <rect class="cls-1" x="759.61" y="103.52" width="7.02" height="1.75" transform="translate(867.52 -658.73) rotate(90)"/>
    </g>
    <g>
      <rect class="cls-1" x="686.82" y="103.52" width="7.02" height="1.75"/>
      <rect class="cls-1" x="686.82" y="103.52" width="7.02" height="1.75" transform="translate(794.73 -585.94) rotate(90)"/>
    </g>
    <line class="cls-2" x1="690.33" y1="104.4" x2="763.12" y2="31.6"/>
  </g>
  <g>
    <rect class="cls-2" x="617.54" y="31.6" width="72.79" height="72.79"/>
    <rect class="cls-2" x="647.92" y="61.99" width="12.03" height="12.03"/>
    <g>
      <rect class="cls-1" x="686.82" y="30.73" width="7.02" height="1.75"/>
      <rect class="cls-1" x="686.82" y="30.73" width="7.02" height="1.75" transform="translate(721.94 -658.73) rotate(90)"/>
    </g>
    <g>
      <rect class="cls-1" x="614.03" y="30.73" width="7.02" height="1.75"/>
      <rect class="cls-1" x="614.03" y="30.73" width="7.02" height="1.75" transform="translate(649.15 -585.94) rotate(90)"/>
    </g>
    <g>
      <rect class="cls-1" x="686.82" y="103.52" width="7.02" height="1.75"/>
      <rect class="cls-1" x="686.82" y="103.52" width="7.02" height="1.75" transform="translate(794.73 -585.94) rotate(90)"/>
    </g>
    <g>
      <rect class="cls-1" x="614.03" y="103.52" width="7.02" height="1.75"/>
      <rect class="cls-1" x="614.03" y="103.52" width="7.02" height="1.75" transform="translate(721.94 -513.15) rotate(90)"/>
    </g>
    <line class="cls-2" x1="617.54" y1="104.4" x2="690.33" y2="31.6"/>
  </g>
  <g>
    <rect class="cls-2" x="544.75" y="31.6" width="72.79" height="72.79"/>
    <rect class="cls-2" x="575.13" y="61.99" width="12.03" height="12.03"/>
    <g>
      <rect class="cls-1" x="614.03" y="30.73" width="7.02" height="1.75"/>
      <rect class="cls-1" x="614.03" y="30.73" width="7.02" height="1.75" transform="translate(649.15 -585.94) rotate(90)"/>
    </g>
    <g>
      <rect class="cls-1" x="541.24" y="30.73" width="7.02" height="1.75"/>
      <rect class="cls-1" x="541.24" y="30.73" width="7.02" height="1.75" transform="translate(576.36 -513.15) rotate(90)"/>
    </g>
    <g>
      <rect class="cls-1" x="614.03" y="103.52" width="7.02" height="1.75"/>
      <rect class="cls-1" x="614.03" y="103.52" width="7.02" height="1.75" transform="translate(721.94 -513.15) rotate(90)"/>
    </g>
    <g>
      <rect class="cls-1" x="541.24" y="103.52" width="7.02" height="1.75"/>
      <rect class="cls-1" x="541.24" y="103.52" width="7.02" height="1.75" transform="translate(649.15 -440.36) rotate(90)"/>
    </g>
    <line class="cls-2" x1="544.75" y1="104.4" x2="617.54" y2="31.6"/>
  </g>
  <g>
    <rect class="cls-2" x="471.96" y="31.6" width="72.79" height="72.79"/>
    <rect class="cls-2" x="502.34" y="61.99" width="12.03" height="12.03"/>
    <g>
      <rect class="cls-1" x="541.24" y="30.73" width="7.02" height="1.75"/>
      <rect class="cls-1" x="541.24" y="30.73" width="7.02" height="1.75" transform="translate(576.36 -513.15) rotate(90)"/>
    </g>
    <g>
      <rect class="cls-1" x="468.45" y="30.73" width="7.02" height="1.75"/>
      <rect class="cls-1" x="468.45" y="30.73" width="7.02" height="1.75" transform="translate(503.57 -440.36) rotate(90)"/>
    </g>
    <g>
      <rect class="cls-1" x="541.24" y="103.52" width="7.02" height="1.75"/>
      <rect class="cls-1" x="541.24" y="103.52" width="7.02" height="1.75" transform="translate(649.15 -440.36) rotate(90)"/>
    </g>
    <g>
      <rect class="cls-1" x="468.45" y="103.52" width="7.02" height="1.75"/>
      <rect class="cls-1" x="468.45" y="103.52" width="7.02" height="1.75" transform="translate(576.36 -367.57) rotate(90)"/>
    </g>
    <line class="cls-2" x1="471.96" y1="104.4" x2="544.75" y2="31.6"/>
  </g>
  <g>
    <rect class="cls-2" x="399.17" y="31.6" width="72.79" height="72.79"/>
    <rect class="cls-2" x="429.55" y="61.99" width="12.03" height="12.03"/>
    <g>
      <rect class="cls-1" x="468.45" y="30.73" width="7.02" height="1.75"/>
      <rect class="cls-1" x="468.45" y="30.73" width="7.02" height="1.75" transform="translate(503.57 -440.36) rotate(90)"/>
    </g>
    <g>
      <rect class="cls-1" x="395.66" y="30.73" width="7.02" height="1.75"/>
      <rect class="cls-1" x="395.66" y="30.73" width="7.02" height="1.75" transform="translate(430.78 -367.57) rotate(90)"/>
    </g>
    <g>
      <rect class="cls-1" x="468.45" y="103.52" width="7.02" height="1.75"/>
      <rect class="cls-1" x="468.45" y="103.52" width="7.02" height="1.75" transform="translate(576.36 -367.57) rotate(90)"/>
    </g>
    <g>
      <rect class="cls-1" x="395.66" y="103.52" width="7.02" height="1.75"/>
      <rect class="cls-1" x="395.66" y="103.52" width="7.02" height="1.75" transform="translate(503.57 -294.78) rotate(90)"/>
    </g>
    <line class="cls-2" x1="399.17" y1="104.4" x2="471.96" y2="31.6"/>
  </g>
  <g>
    <rect class="cls-2" x="326.38" y="31.6" width="72.79" height="72.79"/>
    <rect class="cls-2" x="356.76" y="61.99" width="12.03" height="12.03"/>
    <g>
      <rect class="cls-1" x="395.66" y="30.73" width="7.02" height="1.75"/>
      <rect class="cls-1" x="395.66" y="30.73" width="7.02" height="1.75" transform="translate(430.78 -367.57) rotate(90)"/>
    </g>
    <g>
      <rect class="cls-1" x="322.87" y="30.73" width="7.02" height="1.75"/>
      <rect class="cls-1" x="322.87" y="30.73" width="7.02" height="1.75" transform="translate(357.99 -294.78) rotate(90)"/>
    </g>
    <g>
      <rect class="cls-1" x="395.66" y="103.52" width="7.02" height="1.75"/>
      <rect class="cls-1" x="395.66" y="103.52" width="7.02" height="1.75" transform="translate(503.57 -294.78) rotate(90)"/>
    </g>
    <g>
      <rect class="cls-1" x="322.87" y="103.52" width="7.02" height="1.75"/>
      <rect class="cls-1" x="322.87" y="103.52" width="7.02" height="1.75" transform="translate(430.78 -221.99) rotate(90)"/>
    </g>
    <line class="cls-2" x1="326.38" y1="104.4" x2="399.17" y2="31.6"/>
  </g>
  <g>
    <rect class="cls-2" x="253.59" y="31.6" width="72.79" height="72.79"/>
    <rect class="cls-2" x="283.97" y="61.99" width="12.03" height="12.03"/>
    <g>
      <rect class="cls-1" x="322.87" y="30.73" width="7.02" height="1.75"/>
      <rect class="cls-1" x="322.87" y="30.73" width="7.02" height="1.75" transform="translate(357.99 -294.78) rotate(90)"/>
    </g>
    <g>
      <rect class="cls-1" x="250.08" y="30.73" width="7.02" height="1.75"/>
      <rect class="cls-1" x="250.08" y="30.73" width="7.02" height="1.75" transform="translate(285.2 -221.99) rotate(90)"/>
    </g>
    <g>
      <rect class="cls-1" x="322.87" y="103.52" width="7.02" height="1.75"/>
      <rect class="cls-1" x="322.87" y="103.52" width="7.02" height="1.75" transform="translate(430.78 -221.99) rotate(90)"/>
    </g>
    <g>
      <rect class="cls-1" x="250.08" y="103.52" width="7.02" height="1.75"/>
      <rect class="cls-1" x="250.08" y="103.52" width="7.02" height="1.75" transform="translate(357.99 -149.2) rotate(90)"/>
    </g>
    <line class="cls-2" x1="253.59" y1="104.4" x2="326.38" y2="31.6"/>
  </g>
  <g>
    <rect class="cls-2" x="180.8" y="31.6" width="72.79" height="72.79"/>
    <rect class="cls-2" x="211.18" y="61.99" width="12.03" height="12.03"/>
    <g>
      <rect class="cls-1" x="250.08" y="30.73" width="7.02" height="1.75"/>
      <rect class="cls-1" x="250.08" y="30.73" width="7.02" height="1.75" transform="translate(285.2 -221.99) rotate(90)"/>
    </g>
    <g>
      <rect class="cls-1" x="177.29" y="30.73" width="7.02" height="1.75"/>
      <rect class="cls-1" x="177.29" y="30.73" width="7.02" height="1.75" transform="translate(212.41 -149.2) rotate(90)"/>
    </g>
    <g>
      <rect class="cls-1" x="250.08" y="103.52" width="7.02" height="1.75"/>
      <rect class="cls-1" x="250.08" y="103.52" width="7.02" height="1.75" transform="translate(357.99 -149.2) rotate(90)"/>
    </g>
    <g>
      <rect class="cls-1" x="177.29" y="103.52" width="7.02" height="1.75"/>
      <rect class="cls-1" x="177.29" y="103.52" width="7.02" height="1.75" transform="translate(285.2 -76.41) rotate(90)"/>
    </g>
    <line class="cls-2" x1="180.8" y1="104.4" x2="253.59" y2="31.6"/>
  </g>
  <g>
    <rect class="cls-2" x="108.01" y="31.6" width="72.79" height="72.79"/>
    <rect class="cls-2" x="138.39" y="61.99" width="12.03" height="12.03"/>
    <g>
      <rect class="cls-1" x="177.29" y="30.73" width="7.02" height="1.75"/>
      <rect class="cls-1" x="177.29" y="30.73" width="7.02" height="1.75" transform="translate(212.41 -149.2) rotate(90)"/>
    </g>
    <g>
      <rect class="cls-1" x="104.5" y="30.73" width="7.02" height="1.75"/>
      <rect class="cls-1" x="104.5" y="30.73" width="7.02" height="1.75" transform="translate(139.62 -76.41) rotate(90)"/>
    </g>
    <g>
      <rect class="cls-1" x="177.29" y="103.52" width="7.02" height="1.75"/>
      <rect class="cls-1" x="177.29" y="103.52" width="7.02" height="1.75" transform="translate(285.2 -76.41) rotate(90)"/>
    </g>
    <g>
      <rect class="cls-1" x="104.5" y="103.52" width="7.02" height="1.75"/>
      <rect class="cls-1" x="104.5" y="103.52" width="7.02" height="1.75" transform="translate(212.41 -3.62) rotate(90)"/>
    </g>
    <line class="cls-2" x1="108.01" y1="104.4" x2="180.8" y2="31.6"/>
  </g>
  <g>
    <rect class="cls-2" x="35.22" y="31.6" width="72.79" height="72.79"/>
    <rect class="cls-2" x="65.6" y="61.99" width="12.03" height="12.03"/>
    <g>
      <rect class="cls-1" x="104.5" y="30.73" width="7.02" height="1.75"/>
      <rect class="cls-1" x="104.5" y="30.73" width="7.02" height="1.75" transform="translate(139.62 -76.41) rotate(90)"/>
    </g>
    <g>
      <rect class="cls-1" x="31.71" y="30.73" width="7.02" height="1.75"/>
      <rect class="cls-1" x="31.71" y="30.73" width="7.02" height="1.75" transform="translate(66.83 -3.62) rotate(90)"/>
    </g>
    <g>
      <rect class="cls-1" x="104.5" y="103.52" width="7.02" height="1.75"/>
      <rect class="cls-1" x="104.5" y="103.52" width="7.02" height="1.75" transform="translate(212.41 -3.62) rotate(90)"/>
    </g>
    <g>
      <rect class="cls-1" x="31.71" y="103.52" width="7.02" height="1.75"/>
      <rect class="cls-1" x="31.71" y="103.52" width="7.02" height="1.75" transform="translate(139.62 69.17) rotate(90)"/>
    </g>
    <line class="cls-2" x1="35.22" y1="104.4" x2="108.01" y2="31.6"/>
  </g>
</svg>